<svg xmlns="http://www.w3.org/2000/svg" viewBox="0 0 720 160" role="img" aria-label="mailez — mail easy">
  <defs>
    <linearGradient id="mzlg-bg" x1="0" y1="0" x2="1" y2="1">
      <stop offset="0" stop-color="#2F8E6C"/>
      <stop offset="1" stop-color="#2E6E8E"/>
    </linearGradient>
    <linearGradient id="mzlg-m" x1="0" y1="0" x2="0" y2="1">
      <stop offset="0" stop-color="#FFFFFF"/>
      <stop offset="1" stop-color="#E8F5EE"/>
    </linearGradient>
    <linearGradient id="mzlg-text" x1="0" y1="0" x2="1" y2="0">
      <stop offset="0" stop-color="#2F8E6C"/>
      <stop offset="1" stop-color="#2E6E8E"/>
    </linearGradient>
  </defs>
  <!-- Icon: connected-EZ tile (same mark as mailez-icon.svg), scaled 512->144. -->
  <rect x="8" y="8" width="144" height="144" rx="30" fill="url(#mzlg-bg)"/>
  <g fill="#FFFFFF">
    <!-- E spine -->
    <rect x="36" y="39" width="16" height="66" rx="8"/>
    <!-- E top arm -->
    <rect x="36" y="39" width="37" height="16" rx="8"/>
    <!-- E middle arm + Z top arm (shared) -->
    <rect x="36" y="64" width="72" height="16" rx="8"/>
    <!-- E bottom arm -->
    <rect x="36" y="88" width="37" height="16" rx="8"/>
    <!-- Z bottom arm -->
    <rect x="72" y="88" width="36" height="16" rx="8"/>
    <!-- Z diagonal -->
    <path d="M108 72 L88 88 A8 8 0 0 1 97 95 L121 74 A8 8 0 0 1 108 72 Z"/>
  </g>
  <!-- envelope fold on the Z diagonal + postmark dot -->
  <path d="M93 82 L106 70" stroke="#2F8E6C" stroke-width="2.5" stroke-linecap="round" fill="none" opacity="0.9"/>
  <circle cx="120" cy="70" r="3.5" fill="#FFD98A"/>
  <!-- paper plane swoosh -->
  <path d="M123 30 L138 22 L134 36 Z" fill="#FFD98A"/>
  <path d="M138 22 L134 36 L130 33 Z" fill="#FFC96B"/>
  <!-- Wordmark: "mail" + "ez" (ez accented with the brand green). -->
  <text x="178" y="106" font-family="'Inter','SF Pro Display','Segoe UI',system-ui,sans-serif" font-size="96" font-weight="800" letter-spacing="-1.5" fill="#1E293B">mail</text>
  <text x="346" y="106" font-family="'Inter','SF Pro Display','Segoe UI',system-ui,sans-serif" font-size="96" font-weight="800" letter-spacing="-1.5" fill="url(#mzlg-text)">ez</text>
  <text x="182" y="136" font-family="'Inter','SF Pro Display','Segoe UI',system-ui,sans-serif" font-size="22" font-weight="600" letter-spacing="10" fill="#8A8578">MAIL EASY</text>
</svg>
