<svg xmlns="http://www.w3.org/2000/svg" viewBox="0 0 720 160" role="img" aria-label="mailez — mail easy">
  <defs>
    <linearGradient id="mzlg-bg" x1="0" y1="0" x2="1" y2="1">
      <stop offset="0" stop-color="#2F8E6C"/>
      <stop offset="1" stop-color="#2E6E8E"/>
    </linearGradient>
    <linearGradient id="mzlg-m" x1="0" y1="0" x2="0" y2="1">
      <stop offset="0" stop-color="#FFFFFF"/>
      <stop offset="1" stop-color="#E8F5EE"/>
    </linearGradient>
    <linearGradient id="mzlg-text" x1="0" y1="0" x2="1" y2="0">
      <stop offset="0" stop-color="#2F8E6C"/>
      <stop offset="1" stop-color="#2E6E8E"/>
    </linearGradient>
  </defs>
  <!-- Icon: the EZ-envelope tile (same mark as mailez-icon.svg). -->
  <rect x="8" y="8" width="144" height="144" rx="32" fill="url(#mzlg-bg)"/>
  <rect x="8" y="8" width="144" height="144" rx="32" fill="none" stroke="#FFFFFF" stroke-opacity="0.16" stroke-width="4"/>
  <g fill="none" stroke="url(#mzlg-m)" stroke-width="11" stroke-linecap="round" stroke-linejoin="round">
    <!-- E: spine + bars -->
    <path d="M44 54 V106"/>
    <path d="M44 54 H76"/>
    <path d="M44 80 H70"/>
    <path d="M44 106 H76"/>
    <!-- Z: top, diagonal flap, bottom -->
    <path d="M116 54 H76"/>
    <path d="M116 54 L76 106"/>
    <path d="M76 106 H116"/>
  </g>
  <path d="M130 34 L144 24 L140 44 Z" fill="#FFD98A"/>
  <path d="M144 24 L140 44 L134 40 Z" fill="#FFC96B"/>
  <!-- Wordmark: "mail" + "ez" (ez accented with the brand green). -->
  <text x="178" y="106" font-family="'Inter','SF Pro Display','Segoe UI',system-ui,sans-serif" font-size="96" font-weight="800" letter-spacing="-1.5" fill="#1E293B">mail</text>
  <text x="346" y="106" font-family="'Inter','SF Pro Display','Segoe UI',system-ui,sans-serif" font-size="96" font-weight="800" letter-spacing="-1.5" fill="url(#mzlg-text)">ez</text>
  <text x="182" y="136" font-family="'Inter','SF Pro Display','Segoe UI',system-ui,sans-serif" font-size="22" font-weight="600" letter-spacing="10" fill="#8A8578">MAIL EASY</text>
</svg>
